<?xml version="1.0" encoding="UTF-8" standalone="no"?>
<!DOCTYPE svg PUBLIC "-//W3C//DTD SVG 1.1//EN" "http://www.w3.org/Graphics/SVG/1.1/DTD/svg11.dtd">
<svg width="537" height="104" viewBox="0 0 2220 430" preserveAspectRatio="xMidYMid meet" version="1.1" xmlns="http://www.w3.org/2000/svg" xmlns:xlink="http://www.w3.org/1999/xlink" xml:space="preserve" xmlns:serif="http://www.serif.com/" style="fill-rule:evenodd;clip-rule:evenodd;">
    <g transform="matrix(1,0,0,1,-89.275,-404.166667)">
        <g id="ページ1" transform="matrix(4.166667,0,0,4.166667,0,0)">
            <rect x="0" y="0" width="600" height="300" style="fill:none;"/>
            <g id="レイヤー-1" serif:id="レイヤー 1">
                <g>
                    <g transform="matrix(-355.59389,0,0,355.59389,465.61651,148.499918)">
                        <rect x="-0.249" y="-0.145" width="1.498" height="0.29" style="fill:url(#_Linear1);"/>
                    </g>
                    <g transform="matrix(1.079391,0,0,1,-11.791459,0)">
                        <path d="M149.632,153.254L153.818,153.254C154.646,153.254 155.313,153.506 155.82,154.009C156.326,154.513 156.58,155.22 156.58,156.132C156.58,156.916 156.354,157.598 155.902,158.179C155.45,158.76 154.756,159.051 153.818,159.051L150.892,159.051L150.892,163.296L149.632,163.296L149.632,153.254ZM155.307,156.139C155.307,155.4 155.053,154.899 154.547,154.635C154.268,154.493 153.886,154.423 153.4,154.423L150.892,154.423L150.892,157.902L153.4,157.902C153.966,157.902 154.425,157.772 154.778,157.513C155.13,157.253 155.307,156.795 155.307,156.139Z" style="fill:rgb(224,225,225);fill-rule:nonzero;"/>
                        <path d="M158.187,155.975L159.27,155.975L159.27,157.239C159.359,156.993 159.576,156.694 159.923,156.34C160.269,155.987 160.668,155.811 161.12,155.811C161.141,155.811 161.177,155.813 161.227,155.817C161.278,155.822 161.365,155.831 161.487,155.845L161.487,157.144C161.419,157.13 161.357,157.121 161.3,157.116C161.243,157.112 161.181,157.109 161.113,157.109C160.539,157.109 160.098,157.309 159.79,157.708C159.481,158.106 159.327,158.565 159.327,159.085L159.327,163.296L158.187,163.296L158.187,155.975Z" style="fill:rgb(224,225,225);fill-rule:nonzero;"/>
                        <path d="M165.311,162.503C166.067,162.503 166.585,162.194 166.866,161.577C167.147,160.959 167.287,160.272 167.287,159.516C167.287,158.832 167.186,158.276 166.983,157.848C166.662,157.173 166.109,156.836 165.324,156.836C164.627,156.836 164.121,157.123 163.804,157.697C163.487,158.271 163.329,158.964 163.329,159.775C163.329,160.555 163.487,161.204 163.804,161.724C164.121,162.243 164.623,162.503 165.311,162.503ZM165.356,155.763C166.23,155.763 166.969,156.077 167.572,156.706C168.176,157.335 168.478,158.26 168.478,159.481C168.478,160.662 168.212,161.637 167.68,162.407C167.148,163.177 166.323,163.563 165.204,163.563C164.271,163.563 163.53,163.222 162.981,162.541C162.432,161.859 162.157,160.944 162.157,159.796C162.157,158.565 162.447,157.586 163.025,156.856C163.604,156.127 164.38,155.763 165.356,155.763Z" style="fill:rgb(224,225,225);fill-rule:nonzero;"/>
                        <path d="M172.372,155.845C172.904,155.845 173.368,155.986 173.765,156.269C173.981,156.428 174.2,156.66 174.424,156.966L174.424,156.043L175.475,156.043L175.475,162.701C175.475,163.631 175.349,164.365 175.095,164.902C174.622,165.896 173.729,166.393 172.416,166.393C171.686,166.393 171.072,166.216 170.573,165.863C170.075,165.51 169.796,164.957 169.737,164.205L170.896,164.205C170.951,164.533 171.061,164.786 171.226,164.964C171.483,165.237 171.889,165.374 172.442,165.374C173.316,165.374 173.888,165.041 174.158,164.376C174.318,163.984 174.392,163.285 174.38,162.277C174.152,162.651 173.877,162.929 173.556,163.111C173.235,163.294 172.811,163.385 172.283,163.385C171.549,163.385 170.906,163.103 170.355,162.541C169.804,161.978 169.528,161.047 169.528,159.748C169.528,158.522 169.806,157.565 170.361,156.877C170.916,156.189 171.587,155.845 172.372,155.845ZM174.424,159.604C174.424,158.698 174.251,158.025 173.905,157.588C173.558,157.15 173.117,156.932 172.581,156.932C171.779,156.932 171.23,157.337 170.934,158.148C170.778,158.581 170.7,159.149 170.7,159.851C170.7,160.675 170.855,161.303 171.165,161.734C171.476,162.165 171.893,162.38 172.416,162.38C173.235,162.38 173.812,161.981 174.145,161.184C174.331,160.732 174.424,160.206 174.424,159.604Z" style="fill:rgb(224,225,225);fill-rule:nonzero;"/>
                        <path d="M177.368,155.975L178.451,155.975L178.451,157.239C178.54,156.993 178.757,156.694 179.103,156.34C179.449,155.987 179.848,155.811 180.3,155.811C180.321,155.811 180.357,155.813 180.408,155.817C180.459,155.822 180.545,155.831 180.668,155.845L180.668,157.144C180.6,157.13 180.538,157.121 180.481,157.116C180.424,157.112 180.361,157.109 180.294,157.109C179.72,157.109 179.278,157.309 178.97,157.708C178.662,158.106 178.508,158.565 178.508,159.085L178.508,163.296L177.368,163.296L177.368,155.975Z" style="fill:rgb(224,225,225);fill-rule:nonzero;"/>
                        <path d="M182.674,161.348C182.674,161.703 182.795,161.983 183.035,162.188C183.276,162.394 183.561,162.496 183.89,162.496C184.291,162.496 184.68,162.396 185.056,162.195C185.689,161.863 186.005,161.318 186.005,160.562L186.005,159.57C185.866,159.666 185.687,159.746 185.467,159.81C185.248,159.873 185.032,159.919 184.821,159.946L184.131,160.042C183.717,160.101 183.407,160.195 183.2,160.322C182.849,160.536 182.674,160.878 182.674,161.348ZM185.436,158.859C185.697,158.823 185.872,158.704 185.961,158.504C186.012,158.395 186.037,158.237 186.037,158.032C186.037,157.613 185.899,157.309 185.622,157.12C185.346,156.931 184.95,156.836 184.435,156.836C183.84,156.836 183.417,157.009 183.168,157.355C183.029,157.547 182.938,157.832 182.896,158.21L181.832,158.21C181.853,157.308 182.124,156.68 182.646,156.327C183.167,155.973 183.772,155.797 184.46,155.797C185.258,155.797 185.906,155.961 186.404,156.289C186.898,156.617 187.145,157.128 187.145,157.82L187.145,162.038C187.145,162.166 187.17,162.268 187.218,162.346C187.267,162.423 187.369,162.462 187.525,162.462C187.576,162.462 187.633,162.458 187.696,162.452C187.76,162.445 187.827,162.435 187.899,162.421L187.899,163.33C187.722,163.385 187.587,163.419 187.494,163.433C187.401,163.446 187.274,163.453 187.114,163.453C186.721,163.453 186.436,163.303 186.259,163.002C186.166,162.842 186.1,162.617 186.062,162.325C185.83,162.653 185.497,162.938 185.062,163.18C184.627,163.421 184.148,163.542 183.624,163.542C182.995,163.542 182.481,163.336 182.082,162.923C181.683,162.511 181.484,161.995 181.484,161.375C181.484,160.696 181.68,160.17 182.073,159.796C182.465,159.422 182.98,159.192 183.618,159.105L185.436,158.859Z" style="fill:rgb(224,225,225);fill-rule:nonzero;"/>
                        <path d="M189.159,155.975L190.286,155.975L190.286,157.014C190.556,156.654 190.801,156.392 191.02,156.228C191.396,155.95 191.823,155.811 192.3,155.811C192.84,155.811 193.275,155.954 193.604,156.241C193.79,156.405 193.959,156.647 194.111,156.966C194.364,156.574 194.662,156.283 195.004,156.094C195.346,155.905 195.73,155.811 196.157,155.811C197.069,155.811 197.689,156.166 198.019,156.877C198.196,157.26 198.285,157.775 198.285,158.422L198.285,163.296L197.1,163.296L197.1,158.21C197.1,157.722 196.987,157.387 196.761,157.205C196.536,157.023 196.26,156.932 195.935,156.932C195.487,156.932 195.102,157.093 194.779,157.417C194.456,157.741 194.295,158.281 194.295,159.037L194.295,163.296L193.136,163.296L193.136,158.518C193.136,158.021 193.081,157.659 192.971,157.431C192.798,157.089 192.475,156.918 192.002,156.918C191.571,156.918 191.18,157.098 190.827,157.458C190.475,157.818 190.299,158.47 190.299,159.413L190.299,163.296L189.159,163.296L189.159,155.975Z" style="fill:rgb(224,225,225);fill-rule:nonzero;"/>
                        <path d="M200.108,155.975L201.235,155.975L201.235,157.014C201.505,156.654 201.75,156.392 201.97,156.228C202.345,155.95 202.772,155.811 203.249,155.811C203.789,155.811 204.224,155.954 204.554,156.241C204.739,156.405 204.908,156.647 205.06,156.966C205.314,156.574 205.611,156.283 205.953,156.094C206.295,155.905 206.679,155.811 207.106,155.811C208.018,155.811 208.638,156.166 208.968,156.877C209.145,157.26 209.234,157.775 209.234,158.422L209.234,163.296L208.049,163.296L208.049,158.21C208.049,157.722 207.937,157.387 207.711,157.205C207.485,157.023 207.209,156.932 206.884,156.932C206.437,156.932 206.051,157.093 205.728,157.417C205.405,157.741 205.244,158.281 205.244,159.037L205.244,163.296L204.085,163.296L204.085,158.518C204.085,158.021 204.03,157.659 203.92,157.431C203.747,157.089 203.424,156.918 202.951,156.918C202.521,156.918 202.129,157.098 201.776,157.458C201.424,157.818 201.248,158.47 201.248,159.413L201.248,163.296L200.108,163.296L200.108,155.975Z" style="fill:rgb(224,225,225);fill-rule:nonzero;"/>
                        <path d="M211.931,161.348C211.931,161.703 212.051,161.983 212.292,162.188C212.532,162.394 212.817,162.496 213.147,162.496C213.548,162.496 213.936,162.396 214.312,162.195C214.945,161.863 215.262,161.318 215.262,160.562L215.262,159.57C215.123,159.666 214.943,159.746 214.724,159.81C214.504,159.873 214.289,159.919 214.078,159.946L213.387,160.042C212.974,160.101 212.663,160.195 212.456,160.322C212.106,160.536 211.931,160.878 211.931,161.348ZM214.692,158.859C214.954,158.823 215.129,158.704 215.218,158.504C215.268,158.395 215.294,158.237 215.294,158.032C215.294,157.613 215.155,157.309 214.879,157.12C214.602,156.931 214.207,156.836 213.691,156.836C213.096,156.836 212.674,157.009 212.425,157.355C212.285,157.547 212.195,157.832 212.152,158.21L211.089,158.21C211.11,157.308 211.381,156.68 211.902,156.327C212.424,155.973 213.029,155.797 213.717,155.797C214.515,155.797 215.163,155.961 215.661,156.289C216.155,156.617 216.402,157.128 216.402,157.82L216.402,162.038C216.402,162.166 216.426,162.268 216.475,162.346C216.523,162.423 216.626,162.462 216.782,162.462C216.833,162.462 216.89,162.458 216.953,162.452C217.016,162.445 217.084,162.435 217.156,162.421L217.156,163.33C216.978,163.385 216.843,163.419 216.75,163.433C216.657,163.446 216.531,163.453 216.37,163.453C215.978,163.453 215.693,163.303 215.515,163.002C215.422,162.842 215.357,162.617 215.319,162.325C215.087,162.653 214.753,162.938 214.318,163.18C213.884,163.421 213.404,163.542 212.881,163.542C212.252,163.542 211.738,163.336 211.339,162.923C210.94,162.511 210.74,161.995 210.74,161.375C210.74,160.696 210.937,160.17 211.329,159.796C211.722,159.422 212.237,159.192 212.874,159.105L214.692,158.859Z" style="fill:rgb(224,225,225);fill-rule:nonzero;"/>
                        <path d="M218.326,153.22L219.435,153.22L219.435,156.863C219.684,156.512 219.981,156.245 220.328,156.06C220.674,155.875 221.05,155.783 221.455,155.783C222.299,155.783 222.984,156.097 223.51,156.723C224.036,157.35 224.299,158.274 224.299,159.495C224.299,160.653 224.039,161.614 223.52,162.38C223,163.146 222.28,163.528 221.36,163.528C220.845,163.528 220.41,163.394 220.055,163.125C219.844,162.965 219.618,162.71 219.378,162.359L219.378,163.296L218.326,163.296L218.326,153.22ZM221.29,162.441C221.907,162.441 222.368,162.177 222.674,161.648C222.98,161.12 223.133,160.423 223.133,159.557C223.133,158.786 222.98,158.148 222.674,157.643C222.368,157.137 221.917,156.884 221.322,156.884C220.803,156.884 220.348,157.091 219.957,157.506C219.567,157.921 219.371,158.604 219.371,159.557C219.371,160.245 219.452,160.803 219.612,161.231C219.912,162.038 220.471,162.441 221.29,162.441Z" style="fill:rgb(224,225,225);fill-rule:nonzero;"/>
                        <rect x="225.805" y="153.254" width="1.14" height="10.042" style="fill:rgb(224,225,225);fill-rule:nonzero;"/>
                        <path d="M231.624,155.811C232.106,155.811 232.572,155.932 233.024,156.176C233.476,156.42 233.82,156.736 234.056,157.123C234.284,157.492 234.436,157.923 234.512,158.415C234.58,158.752 234.614,159.29 234.614,160.028L229.642,160.028C229.663,160.771 229.826,161.367 230.13,161.816C230.434,162.265 230.904,162.489 231.542,162.489C232.137,162.489 232.612,162.277 232.967,161.854C233.17,161.607 233.313,161.323 233.398,160.999L234.519,160.999C234.489,161.268 234.391,161.568 234.224,161.898C234.057,162.228 233.87,162.498 233.664,162.708C233.317,163.073 232.889,163.319 232.378,163.446C232.104,163.519 231.793,163.556 231.447,163.556C230.603,163.556 229.887,163.224 229.3,162.561C228.713,161.898 228.42,160.969 228.42,159.775C228.42,158.6 228.715,157.645 229.306,156.911C229.897,156.177 230.67,155.811 231.624,155.811ZM233.442,159.051C233.395,158.518 233.288,158.091 233.119,157.772C232.807,157.18 232.285,156.884 231.555,156.884C231.031,156.884 230.592,157.088 230.237,157.496C229.883,157.903 229.695,158.422 229.674,159.051L233.442,159.051Z" style="fill:rgb(224,225,225);fill-rule:nonzero;"/>
                        <path d="M243.63,162.134C244.057,162.134 244.407,162.086 244.682,161.99C245.171,161.813 245.572,161.471 245.885,160.965C246.134,160.559 246.313,160.04 246.423,159.406C246.486,159.028 246.518,158.677 246.518,158.354C246.518,157.109 246.289,156.143 245.831,155.455C245.373,154.767 244.635,154.423 243.618,154.423L241.382,154.423L241.382,162.134L243.63,162.134ZM240.115,153.254L243.884,153.254C245.163,153.254 246.155,153.744 246.86,154.724C247.489,155.608 247.804,156.74 247.804,158.121C247.804,159.188 247.618,160.151 247.246,161.013C246.592,162.535 245.467,163.296 243.871,163.296L240.115,163.296L240.115,153.254Z" style="fill:rgb(224,225,225);fill-rule:nonzero;"/>
                        <path d="M250.292,161.348C250.292,161.703 250.412,161.983 250.653,162.188C250.894,162.394 251.178,162.496 251.508,162.496C251.909,162.496 252.297,162.396 252.673,162.195C253.306,161.863 253.623,161.318 253.623,160.562L253.623,159.57C253.484,159.666 253.304,159.746 253.085,159.81C252.865,159.873 252.65,159.919 252.439,159.946L251.748,160.042C251.335,160.101 251.024,160.195 250.818,160.322C250.467,160.536 250.292,160.878 250.292,161.348ZM253.053,158.859C253.315,158.823 253.49,158.704 253.579,158.504C253.629,158.395 253.655,158.237 253.655,158.032C253.655,157.613 253.516,157.309 253.24,157.12C252.963,156.931 252.568,156.836 252.052,156.836C251.457,156.836 251.035,157.009 250.786,157.355C250.647,157.547 250.556,157.832 250.514,158.21L249.45,158.21C249.471,157.308 249.742,156.68 250.263,156.327C250.785,155.973 251.39,155.797 252.078,155.797C252.876,155.797 253.524,155.961 254.022,156.289C254.516,156.617 254.763,157.128 254.763,157.82L254.763,162.038C254.763,162.166 254.787,162.268 254.836,162.346C254.884,162.423 254.987,162.462 255.143,162.462C255.194,162.462 255.251,162.458 255.314,162.452C255.377,162.445 255.445,162.435 255.517,162.421L255.517,163.33C255.339,163.385 255.204,163.419 255.111,163.433C255.018,163.446 254.892,163.453 254.731,163.453C254.339,163.453 254.054,163.303 253.876,163.002C253.784,162.842 253.718,162.617 253.68,162.325C253.448,162.653 253.114,162.938 252.679,163.18C252.245,163.421 251.765,163.542 251.242,163.542C250.613,163.542 250.099,163.336 249.7,162.923C249.301,162.511 249.101,161.995 249.101,161.375C249.101,160.696 249.298,160.17 249.69,159.796C250.083,159.422 250.598,159.192 251.235,159.105L253.053,158.859Z" style="fill:rgb(224,225,225);fill-rule:nonzero;"/>
                        <path d="M257.004,153.931L258.157,153.931L258.157,155.975L259.24,155.975L259.24,156.979L258.157,156.979L258.157,161.758C258.157,162.013 258.237,162.184 258.397,162.271C258.486,162.321 258.634,162.346 258.841,162.346C258.896,162.346 258.955,162.345 259.018,162.342C259.081,162.34 259.155,162.334 259.24,162.325L259.24,163.296C259.109,163.337 258.973,163.367 258.831,163.385C258.69,163.403 258.537,163.412 258.372,163.412C257.84,163.412 257.479,163.265 257.289,162.971C257.099,162.677 257.004,162.296 257.004,161.826L257.004,156.979L256.086,156.979L256.086,155.975L257.004,155.975L257.004,153.931Z" style="fill:rgb(224,225,225);fill-rule:nonzero;"/>
                        <path d="M261.398,161.348C261.398,161.703 261.519,161.983 261.759,162.188C262,162.394 262.285,162.496 262.614,162.496C263.016,162.496 263.404,162.396 263.78,162.195C264.413,161.863 264.73,161.318 264.73,160.562L264.73,159.57C264.59,159.666 264.411,159.746 264.191,159.81C263.972,159.873 263.757,159.919 263.545,159.946L262.855,160.042C262.441,160.101 262.131,160.195 261.924,160.322C261.574,160.536 261.398,160.878 261.398,161.348ZM264.16,158.859C264.421,158.823 264.597,158.704 264.685,158.504C264.736,158.395 264.761,158.237 264.761,158.032C264.761,157.613 264.623,157.309 264.347,157.12C264.07,156.931 263.674,156.836 263.159,156.836C262.564,156.836 262.142,157.009 261.892,157.355C261.753,157.547 261.662,157.832 261.62,158.21L260.556,158.21C260.577,157.308 260.849,156.68 261.37,156.327C261.891,155.973 262.496,155.797 263.184,155.797C263.982,155.797 264.63,155.961 265.129,156.289C265.623,156.617 265.87,157.128 265.87,157.82L265.87,162.038C265.87,162.166 265.894,162.268 265.943,162.346C265.991,162.423 266.093,162.462 266.25,162.462C266.3,162.462 266.357,162.458 266.421,162.452C266.484,162.445 266.552,162.435 266.623,162.421L266.623,163.33C266.446,163.385 266.311,163.419 266.218,163.433C266.125,163.446 265.998,163.453 265.838,163.453C265.445,163.453 265.16,163.303 264.983,163.002C264.89,162.842 264.825,162.617 264.787,162.325C264.554,162.653 264.221,162.938 263.786,163.18C263.351,163.421 262.872,163.542 262.348,163.542C261.719,163.542 261.205,163.336 260.806,162.923C260.407,162.511 260.208,161.995 260.208,161.375C260.208,160.696 260.404,160.17 260.797,159.796C261.189,159.422 261.705,159.192 262.342,159.105L264.16,158.859Z" style="fill:rgb(224,225,225);fill-rule:nonzero;"/>
                        <path d="M267.794,153.22L268.902,153.22L268.902,156.863C269.151,156.512 269.449,156.245 269.795,156.06C270.142,155.875 270.517,155.783 270.923,155.783C271.767,155.783 272.452,156.097 272.978,156.723C273.503,157.35 273.766,158.274 273.766,159.495C273.766,160.653 273.507,161.614 272.987,162.38C272.468,163.146 271.748,163.528 270.828,163.528C270.313,163.528 269.878,163.394 269.523,163.125C269.312,162.965 269.086,162.71 268.845,162.359L268.845,163.296L267.794,163.296L267.794,153.22ZM270.758,162.441C271.374,162.441 271.836,162.177 272.142,161.648C272.448,161.12 272.601,160.423 272.601,159.557C272.601,158.786 272.448,158.148 272.142,157.643C271.836,157.137 271.385,156.884 270.79,156.884C270.27,156.884 269.815,157.091 269.425,157.506C269.034,157.921 268.839,158.604 268.839,159.557C268.839,160.245 268.919,160.803 269.08,161.231C269.379,162.038 269.939,162.441 270.758,162.441Z" style="fill:rgb(224,225,225);fill-rule:nonzero;"/>
                        <path d="M276.115,161.348C276.115,161.703 276.235,161.983 276.476,162.188C276.717,162.394 277.002,162.496 277.331,162.496C277.732,162.496 278.12,162.396 278.496,162.195C279.13,161.863 279.446,161.318 279.446,160.562L279.446,159.57C279.307,159.666 279.127,159.746 278.908,159.81C278.688,159.873 278.473,159.919 278.262,159.946L277.572,160.042C277.158,160.101 276.848,160.195 276.641,160.322C276.29,160.536 276.115,160.878 276.115,161.348ZM278.876,158.859C279.138,158.823 279.313,158.704 279.402,158.504C279.453,158.395 279.478,158.237 279.478,158.032C279.478,157.613 279.34,157.309 279.063,157.12C278.787,156.931 278.391,156.836 277.876,156.836C277.28,156.836 276.858,157.009 276.609,157.355C276.47,157.547 276.379,157.832 276.337,158.21L275.273,158.21C275.294,157.308 275.565,156.68 276.086,156.327C276.608,155.973 277.213,155.797 277.901,155.797C278.699,155.797 279.347,155.961 279.845,156.289C280.339,156.617 280.586,157.128 280.586,157.82L280.586,162.038C280.586,162.166 280.61,162.268 280.659,162.346C280.708,162.423 280.81,162.462 280.966,162.462C281.017,162.462 281.074,162.458 281.137,162.452C281.201,162.445 281.268,162.435 281.34,162.421L281.34,163.33C281.163,163.385 281.027,163.419 280.935,163.433C280.842,163.446 280.715,163.453 280.555,163.453C280.162,163.453 279.877,163.303 279.7,163.002C279.607,162.842 279.541,162.617 279.503,162.325C279.271,162.653 278.937,162.938 278.503,163.18C278.068,163.421 277.589,163.542 277.065,163.542C276.436,163.542 275.922,163.336 275.523,162.923C275.124,162.511 274.924,161.995 274.924,161.375C274.924,160.696 275.121,160.17 275.513,159.796C275.906,159.422 276.421,159.192 277.059,159.105L278.876,158.859Z" style="fill:rgb(224,225,225);fill-rule:nonzero;"/>
                        <path d="M283.277,160.999C283.311,161.409 283.406,161.724 283.562,161.942C283.849,162.339 284.347,162.537 285.057,162.537C285.479,162.537 285.85,162.438 286.171,162.24C286.492,162.042 286.652,161.735 286.652,161.32C286.652,161.006 286.524,160.767 286.266,160.603C286.102,160.502 285.776,160.386 285.291,160.254L284.385,160.008C283.807,159.853 283.38,159.68 283.106,159.488C282.616,159.156 282.371,158.695 282.371,158.107C282.371,157.415 282.602,156.854 283.065,156.426C283.527,155.997 284.149,155.783 284.93,155.783C285.952,155.783 286.688,156.107 287.14,156.754C287.423,157.164 287.56,157.606 287.552,158.08L286.475,158.08C286.454,157.802 286.363,157.549 286.203,157.321C285.941,156.998 285.487,156.836 284.841,156.836C284.411,156.836 284.084,156.925 283.863,157.103C283.641,157.28 283.53,157.515 283.53,157.807C283.53,158.126 283.676,158.381 283.967,158.572C284.136,158.686 284.385,158.786 284.715,158.873L285.468,159.071C286.287,159.285 286.836,159.493 287.115,159.693C287.558,160.008 287.78,160.502 287.78,161.177C287.78,161.828 287.551,162.391 287.093,162.865C286.635,163.339 285.937,163.576 285,163.576C283.99,163.576 283.276,163.329 282.856,162.834C282.436,162.34 282.211,161.728 282.181,160.999L283.277,160.999Z" style="fill:rgb(224,225,225);fill-rule:nonzero;"/>
                        <path d="M292.054,155.811C292.535,155.811 293.002,155.932 293.453,156.176C293.905,156.42 294.249,156.736 294.486,157.123C294.714,157.492 294.866,157.923 294.942,158.415C295.009,158.752 295.043,159.29 295.043,160.028L290.072,160.028C290.093,160.771 290.255,161.367 290.559,161.816C290.863,162.265 291.334,162.489 291.971,162.489C292.567,162.489 293.042,162.277 293.396,161.854C293.599,161.607 293.743,161.323 293.827,160.999L294.948,160.999C294.918,161.268 294.82,161.568 294.654,161.898C294.487,162.228 294.3,162.498 294.093,162.708C293.747,163.073 293.318,163.319 292.807,163.446C292.533,163.519 292.223,163.556 291.876,163.556C291.032,163.556 290.316,163.224 289.73,162.561C289.143,161.898 288.849,160.969 288.849,159.775C288.849,158.6 289.145,157.645 289.736,156.911C290.327,156.177 291.1,155.811 292.054,155.811ZM293.871,159.051C293.825,158.518 293.717,158.091 293.548,157.772C293.236,157.18 292.715,156.884 291.984,156.884C291.461,156.884 291.021,157.088 290.667,157.496C290.312,157.903 290.124,158.422 290.103,159.051L293.871,159.051Z" style="fill:rgb(224,225,225);fill-rule:nonzero;"/>
                        <path d="M300.608,153.254L307.391,153.254L307.391,154.484L301.837,154.484L301.837,157.533L306.973,157.533L306.973,158.695L301.837,158.695L301.837,162.1L307.486,162.1L307.486,163.296L300.608,163.296L300.608,153.254Z" style="fill:rgb(224,225,225);fill-rule:nonzero;"/>
                        <path d="M309.132,155.975L310.215,155.975L310.215,157.014C310.536,156.585 310.875,156.278 311.234,156.091C311.593,155.904 311.992,155.811 312.431,155.811C313.394,155.811 314.044,156.173 314.382,156.897C314.568,157.294 314.661,157.861 314.661,158.6L314.661,163.296L313.502,163.296L313.502,158.682C313.502,158.235 313.44,157.875 313.318,157.602C313.115,157.146 312.748,156.918 312.216,156.918C311.946,156.918 311.724,156.948 311.551,157.007C311.239,157.107 310.964,157.308 310.728,157.608C310.538,157.85 310.414,158.099 310.357,158.357C310.3,158.614 310.272,158.982 310.272,159.461L310.272,163.296L309.132,163.296L309.132,155.975Z" style="fill:rgb(224,225,225);fill-rule:nonzero;"/>
                        <path d="M318.884,155.845C319.416,155.845 319.88,155.986 320.277,156.269C320.493,156.428 320.712,156.66 320.936,156.966L320.936,156.043L321.987,156.043L321.987,162.701C321.987,163.631 321.86,164.365 321.607,164.902C321.134,165.896 320.241,166.393 318.928,166.393C318.198,166.393 317.583,166.216 317.085,165.863C316.587,165.51 316.308,164.957 316.249,164.205L317.408,164.205C317.463,164.533 317.573,164.786 317.738,164.964C317.995,165.237 318.4,165.374 318.954,165.374C319.828,165.374 320.4,165.041 320.67,164.376C320.83,163.984 320.904,163.285 320.892,162.277C320.664,162.651 320.389,162.929 320.068,163.111C319.747,163.294 319.323,163.385 318.795,163.385C318.061,163.385 317.418,163.103 316.867,162.541C316.316,161.978 316.04,161.047 316.04,159.748C316.04,158.522 316.318,157.565 316.873,156.877C317.428,156.189 318.099,155.845 318.884,155.845ZM320.936,159.604C320.936,158.698 320.763,158.025 320.417,157.588C320.07,157.15 319.629,156.932 319.093,156.932C318.291,156.932 317.742,157.337 317.446,158.148C317.29,158.581 317.212,159.149 317.212,159.851C317.212,160.675 317.367,161.303 317.677,161.734C317.988,162.165 318.405,162.38 318.928,162.38C319.747,162.38 320.324,161.981 320.657,161.184C320.843,160.732 320.936,160.206 320.936,159.604Z" style="fill:rgb(224,225,225);fill-rule:nonzero;"/>
                        <path d="M323.848,156.009L325.007,156.009L325.007,163.296L323.848,163.296L323.848,156.009ZM323.848,153.254L325.007,153.254L325.007,154.648L323.848,154.648L323.848,153.254Z" style="fill:rgb(224,225,225);fill-rule:nonzero;"/>
                        <path d="M326.875,155.975L327.958,155.975L327.958,157.014C328.278,156.585 328.618,156.278 328.977,156.091C329.336,155.904 329.735,155.811 330.174,155.811C331.137,155.811 331.787,156.173 332.125,156.897C332.311,157.294 332.403,157.861 332.403,158.6L332.403,163.296L331.244,163.296L331.244,158.682C331.244,158.235 331.183,157.875 331.061,157.602C330.858,157.146 330.491,156.918 329.959,156.918C329.689,156.918 329.467,156.948 329.294,157.007C328.981,157.107 328.707,157.308 328.471,157.608C328.281,157.85 328.157,158.099 328.1,158.357C328.043,158.614 328.015,158.982 328.015,159.461L328.015,163.296L326.875,163.296L326.875,155.975Z" style="fill:rgb(224,225,225);fill-rule:nonzero;"/>
                        <path d="M337.057,155.811C337.539,155.811 338.005,155.932 338.457,156.176C338.909,156.42 339.253,156.736 339.489,157.123C339.717,157.492 339.869,157.923 339.945,158.415C340.013,158.752 340.047,159.29 340.047,160.028L335.075,160.028C335.096,160.771 335.259,161.367 335.563,161.816C335.867,162.265 336.338,162.489 336.975,162.489C337.57,162.489 338.045,162.277 338.4,161.854C338.603,161.607 338.746,161.323 338.831,160.999L339.952,160.999C339.922,161.268 339.824,161.568 339.657,161.898C339.49,162.228 339.304,162.498 339.097,162.708C338.751,163.073 338.322,163.319 337.811,163.446C337.537,163.519 337.226,163.556 336.88,163.556C336.036,163.556 335.32,163.224 334.733,162.561C334.146,161.898 333.853,160.969 333.853,159.775C333.853,158.6 334.148,157.645 334.74,156.911C335.331,156.177 336.103,155.811 337.057,155.811ZM338.875,159.051C338.829,158.518 338.721,158.091 338.552,157.772C338.24,157.18 337.718,156.884 336.988,156.884C336.464,156.884 336.025,157.088 335.67,157.496C335.316,157.903 335.128,158.422 335.107,159.051L338.875,159.051Z" style="fill:rgb(224,225,225);fill-rule:nonzero;"/>
                        <path d="M345.624,154.86C345.641,154.35 345.724,153.976 345.871,153.739C346.137,153.32 346.65,153.11 347.41,153.11C347.482,153.11 347.556,153.113 347.632,153.117C347.708,153.122 347.795,153.129 347.892,153.138L347.892,154.259C347.774,154.25 347.688,154.244 347.635,154.242C347.582,154.239 347.533,154.238 347.486,154.238C347.14,154.238 346.933,154.335 346.866,154.529C346.798,154.722 346.764,155.216 346.764,156.009L347.892,156.009L347.892,156.979L346.752,156.979L346.752,163.296L345.624,163.296L345.624,156.979L344.681,156.979L344.681,156.009L345.624,156.009L345.624,154.86Z" style="fill:rgb(224,225,225);fill-rule:nonzero;"/>
                        <path d="M351.779,162.503C352.535,162.503 353.053,162.194 353.334,161.577C353.615,160.959 353.755,160.272 353.755,159.516C353.755,158.832 353.654,158.276 353.451,157.848C353.131,157.173 352.577,156.836 351.792,156.836C351.095,156.836 350.589,157.123 350.272,157.697C349.955,158.271 349.797,158.964 349.797,159.775C349.797,160.555 349.955,161.204 350.272,161.724C350.589,162.243 351.091,162.503 351.779,162.503ZM351.824,155.763C352.698,155.763 353.437,156.077 354.04,156.706C354.644,157.335 354.946,158.26 354.946,159.481C354.946,160.662 354.68,161.637 354.148,162.407C353.616,163.177 352.791,163.563 351.672,163.563C350.739,163.563 349.998,163.222 349.449,162.541C348.9,161.859 348.626,160.944 348.626,159.796C348.626,158.565 348.915,157.586 349.493,156.856C350.072,156.127 350.848,155.763 351.824,155.763Z" style="fill:rgb(224,225,225);fill-rule:nonzero;"/>
                        <path d="M356.478,155.975L357.561,155.975L357.561,157.239C357.649,156.993 357.867,156.694 358.213,156.34C358.559,155.987 358.958,155.811 359.41,155.811C359.431,155.811 359.467,155.813 359.518,155.817C359.568,155.822 359.655,155.831 359.777,155.845L359.777,157.144C359.71,157.13 359.648,157.121 359.591,157.116C359.534,157.112 359.471,157.109 359.404,157.109C358.829,157.109 358.388,157.309 358.08,157.708C357.772,158.106 357.618,158.565 357.618,159.085L357.618,163.296L356.478,163.296L356.478,155.975Z" style="fill:rgb(224,225,225);fill-rule:nonzero;"/>
                        <path d="M368.731,152.98C369.909,152.98 370.823,153.315 371.473,153.985C372.123,154.655 372.484,155.416 372.556,156.269L371.327,156.269C371.188,155.621 370.91,155.109 370.494,154.73C370.079,154.352 369.495,154.163 368.743,154.163C367.827,154.163 367.087,154.511 366.524,155.206C365.96,155.901 365.678,156.966 365.678,158.401C365.678,159.577 365.933,160.531 366.441,161.262C366.95,161.994 367.709,162.359 368.718,162.359C369.647,162.359 370.354,161.974 370.84,161.204C371.097,160.799 371.289,160.265 371.416,159.604L372.645,159.604C372.535,160.662 372.172,161.548 371.555,162.264C370.816,163.125 369.82,163.556 368.566,163.556C367.485,163.556 366.577,163.202 365.843,162.496C364.876,161.562 364.392,160.119 364.392,158.169C364.392,156.688 364.756,155.473 365.482,154.525C366.267,153.495 367.35,152.98 368.731,152.98Z" style="fill:rgb(224,225,225);fill-rule:nonzero;"/>
                        <path d="M376.862,162.503C377.617,162.503 378.136,162.194 378.416,161.577C378.697,160.959 378.838,160.272 378.838,159.516C378.838,158.832 378.736,158.276 378.534,157.848C378.213,157.173 377.66,156.836 376.874,156.836C376.178,156.836 375.671,157.123 375.354,157.697C375.038,158.271 374.879,158.964 374.879,159.775C374.879,160.555 375.038,161.204 375.354,161.724C375.671,162.243 376.173,162.503 376.862,162.503ZM376.906,155.763C377.78,155.763 378.519,156.077 379.123,156.706C379.726,157.335 380.028,158.26 380.028,159.481C380.028,160.662 379.762,161.637 379.23,162.407C378.698,163.177 377.873,163.563 376.754,163.563C375.821,163.563 375.08,163.222 374.531,162.541C373.982,161.859 373.708,160.944 373.708,159.796C373.708,158.565 373.997,157.586 374.575,156.856C375.154,156.127 375.931,155.763 376.906,155.763Z" style="fill:rgb(224,225,225);fill-rule:nonzero;"/>
                        <path d="M381.528,155.975L382.611,155.975L382.611,157.014C382.932,156.585 383.272,156.278 383.631,156.091C383.99,155.904 384.389,155.811 384.828,155.811C385.79,155.811 386.441,156.173 386.778,156.897C386.964,157.294 387.057,157.861 387.057,158.6L387.057,163.296L385.898,163.296L385.898,158.682C385.898,158.235 385.837,157.875 385.714,157.602C385.512,157.146 385.144,156.918 384.613,156.918C384.342,156.918 384.121,156.948 383.948,157.007C383.635,157.107 383.361,157.308 383.124,157.608C382.934,157.85 382.811,158.099 382.754,158.357C382.697,158.614 382.668,158.982 382.668,159.461L382.668,163.296L381.528,163.296L381.528,155.975Z" style="fill:rgb(224,225,225);fill-rule:nonzero;"/>
                        <path d="M389.115,153.931L390.267,153.931L390.267,155.975L391.35,155.975L391.35,156.979L390.267,156.979L390.267,161.758C390.267,162.013 390.347,162.184 390.508,162.271C390.596,162.321 390.744,162.346 390.951,162.346C391.006,162.346 391.065,162.345 391.128,162.342C391.192,162.34 391.266,162.334 391.35,162.325L391.35,163.296C391.219,163.337 391.083,163.367 390.942,163.385C390.8,163.403 390.647,163.412 390.482,163.412C389.95,163.412 389.59,163.265 389.4,162.971C389.21,162.677 389.115,162.296 389.115,161.826L389.115,156.979L388.196,156.979L388.196,155.975L389.115,155.975L389.115,153.931Z" style="fill:rgb(224,225,225);fill-rule:nonzero;"/>
                        <path d="M392.635,156.009L393.794,156.009L393.794,163.296L392.635,163.296L392.635,156.009ZM392.635,153.254L393.794,153.254L393.794,154.648L392.635,154.648L392.635,153.254Z" style="fill:rgb(224,225,225);fill-rule:nonzero;"/>
                        <path d="M395.661,155.975L396.744,155.975L396.744,157.014C397.065,156.585 397.405,156.278 397.764,156.091C398.123,155.904 398.522,155.811 398.961,155.811C399.923,155.811 400.574,156.173 400.911,156.897C401.097,157.294 401.19,157.861 401.19,158.6L401.19,163.296L400.031,163.296L400.031,158.682C400.031,158.235 399.97,157.875 399.847,157.602C399.645,157.146 399.278,156.918 398.746,156.918C398.475,156.918 398.254,156.948 398.081,157.007C397.768,157.107 397.494,157.308 397.257,157.608C397.067,157.85 396.944,158.099 396.887,158.357C396.83,158.614 396.801,158.982 396.801,159.461L396.801,163.296L395.661,163.296L395.661,155.975Z" style="fill:rgb(224,225,225);fill-rule:nonzero;"/>
                        <path d="M404.159,155.975L404.159,160.835C404.159,161.209 404.214,161.514 404.324,161.751C404.527,162.188 404.905,162.407 405.458,162.407C406.252,162.407 406.792,162.024 407.079,161.259C407.235,160.849 407.313,160.286 407.313,159.57L407.313,155.975L408.453,155.975L408.453,163.296L407.377,163.296L407.389,162.216C407.242,162.494 407.058,162.729 406.838,162.92C406.404,163.303 405.876,163.494 405.255,163.494C404.288,163.494 403.63,163.146 403.279,162.448C403.089,162.075 402.994,161.576 402.994,160.951L402.994,155.975L404.159,155.975Z" style="fill:rgb(224,225,225);fill-rule:nonzero;"/>
                        <path d="M413.069,162.503C413.825,162.503 414.343,162.194 414.624,161.577C414.905,160.959 415.045,160.272 415.045,159.516C415.045,158.832 414.944,158.276 414.741,157.848C414.42,157.173 413.867,156.836 413.082,156.836C412.385,156.836 411.879,157.123 411.562,157.697C411.245,158.271 411.087,158.964 411.087,159.775C411.087,160.555 411.245,161.204 411.562,161.724C411.879,162.243 412.381,162.503 413.069,162.503ZM413.114,155.763C413.988,155.763 414.727,156.077 415.33,156.706C415.934,157.335 416.236,158.26 416.236,159.481C416.236,160.662 415.97,161.637 415.438,162.407C414.906,163.177 414.081,163.563 412.962,163.563C412.029,163.563 411.288,163.222 410.739,162.541C410.19,161.859 409.915,160.944 409.915,159.796C409.915,158.565 410.205,157.586 410.783,156.856C411.362,156.127 412.138,155.763 413.114,155.763Z" style="fill:rgb(224,225,225);fill-rule:nonzero;"/>
                        <path d="M418.876,155.975L418.876,160.835C418.876,161.209 418.931,161.514 419.041,161.751C419.243,162.188 419.621,162.407 420.174,162.407C420.968,162.407 421.508,162.024 421.796,161.259C421.952,160.849 422.03,160.286 422.03,159.57L422.03,155.975L423.17,155.975L423.17,163.296L422.093,163.296L422.106,162.216C421.958,162.494 421.774,162.729 421.555,162.92C421.12,163.303 420.592,163.494 419.972,163.494C419.005,163.494 418.346,163.146 417.996,162.448C417.806,162.075 417.711,161.576 417.711,160.951L417.711,155.975L418.876,155.975Z" style="fill:rgb(224,225,225);fill-rule:nonzero;"/>
                        <path d="M425.772,160.999C425.806,161.409 425.901,161.724 426.057,161.942C426.344,162.339 426.842,162.537 427.552,162.537C427.974,162.537 428.345,162.438 428.666,162.24C428.987,162.042 429.148,161.735 429.148,161.32C429.148,161.006 429.019,160.767 428.761,160.603C428.597,160.502 428.271,160.386 427.786,160.254L426.88,160.008C426.302,159.853 425.875,159.68 425.601,159.488C425.111,159.156 424.866,158.695 424.866,158.107C424.866,157.415 425.097,156.854 425.56,156.426C426.022,155.997 426.644,155.783 427.425,155.783C428.447,155.783 429.183,156.107 429.635,156.754C429.918,157.164 430.055,157.606 430.047,158.08L428.97,158.08C428.949,157.802 428.858,157.549 428.698,157.321C428.436,156.998 427.982,156.836 427.336,156.836C426.906,156.836 426.579,156.925 426.358,157.103C426.136,157.28 426.025,157.515 426.025,157.807C426.025,158.126 426.171,158.381 426.462,158.572C426.631,158.686 426.88,158.786 427.21,158.873L427.963,159.071C428.782,159.285 429.331,159.493 429.61,159.693C430.053,160.008 430.275,160.502 430.275,161.177C430.275,161.828 430.046,162.391 429.588,162.865C429.13,163.339 428.432,163.576 427.495,163.576C426.485,163.576 425.771,163.329 425.351,162.834C424.931,162.34 424.706,161.728 424.676,160.999L425.772,160.999Z" style="fill:rgb(224,225,225);fill-rule:nonzero;"/>
                        <path d="M435.593,153.254L437.398,153.254L440.07,161.744L442.724,153.254L444.51,153.254L444.51,163.296L443.313,163.296L443.313,157.369C443.313,157.164 443.317,156.825 443.326,156.351C443.334,155.877 443.338,155.368 443.338,154.826L440.685,163.296L439.437,163.296L436.765,154.826L436.765,155.134C436.765,155.38 436.77,155.755 436.78,156.258C436.791,156.762 436.796,157.132 436.796,157.369L436.796,163.296L435.593,163.296L435.593,153.254Z" style="fill:rgb(224,225,225);fill-rule:nonzero;"/>
                        <path d="M449.246,155.811C449.728,155.811 450.194,155.932 450.646,156.176C451.098,156.42 451.442,156.736 451.678,157.123C451.906,157.492 452.058,157.923 452.134,158.415C452.202,158.752 452.236,159.29 452.236,160.028L447.264,160.028C447.285,160.771 447.448,161.367 447.752,161.816C448.056,162.265 448.526,162.489 449.164,162.489C449.759,162.489 450.234,162.277 450.589,161.854C450.792,161.607 450.935,161.323 451.02,160.999L452.141,160.999C452.111,161.268 452.013,161.568 451.846,161.898C451.679,162.228 451.492,162.498 451.286,162.708C450.939,163.073 450.511,163.319 450,163.446C449.726,163.519 449.415,163.556 449.069,163.556C448.225,163.556 447.509,163.224 446.922,162.561C446.335,161.898 446.042,160.969 446.042,159.775C446.042,158.6 446.337,157.645 446.928,156.911C447.52,156.177 448.292,155.811 449.246,155.811ZM451.064,159.051C451.018,158.518 450.91,158.091 450.741,157.772C450.429,157.18 449.907,156.884 449.177,156.884C448.653,156.884 448.214,157.088 447.859,157.496C447.505,157.903 447.317,158.422 447.296,159.051L451.064,159.051Z" style="fill:rgb(224,225,225);fill-rule:nonzero;"/>
                        <path d="M454.502,159.721C454.502,160.505 454.656,161.161 454.964,161.689C455.273,162.218 455.767,162.482 456.446,162.482C456.974,162.482 457.408,162.237 457.748,161.748C458.088,161.258 458.258,160.555 458.258,159.639C458.258,158.714 458.082,158.029 457.732,157.584C457.381,157.14 456.949,156.918 456.434,156.918C455.859,156.918 455.394,157.155 455.037,157.629C454.68,158.103 454.502,158.8 454.502,159.721ZM456.218,155.845C456.738,155.845 457.172,155.963 457.523,156.2C457.726,156.337 457.956,156.576 458.213,156.918L458.213,153.22L459.309,153.22L459.309,163.296L458.283,163.296L458.283,162.277C458.017,162.729 457.702,163.054 457.339,163.255C456.976,163.455 456.56,163.556 456.092,163.556C455.336,163.556 454.681,163.213 454.128,162.527C453.575,161.841 453.299,160.928 453.299,159.789C453.299,158.723 453.551,157.799 454.056,157.017C454.56,156.236 455.281,155.845 456.218,155.845Z" style="fill:rgb(224,225,225);fill-rule:nonzero;"/>
                        <path d="M461.138,156.009L462.297,156.009L462.297,163.296L461.138,163.296L461.138,156.009ZM461.138,153.254L462.297,153.254L462.297,154.648L461.138,154.648L461.138,153.254Z" style="fill:rgb(224,225,225);fill-rule:nonzero;"/>
                        <path d="M465.039,161.348C465.039,161.703 465.159,161.983 465.4,162.188C465.64,162.394 465.925,162.496 466.255,162.496C466.656,162.496 467.044,162.396 467.42,162.195C468.053,161.863 468.37,161.318 468.37,160.562L468.37,159.57C468.231,159.666 468.051,159.746 467.832,159.81C467.612,159.873 467.397,159.919 467.186,159.946L466.495,160.042C466.081,160.101 465.771,160.195 465.564,160.322C465.214,160.536 465.039,160.878 465.039,161.348ZM467.8,158.859C468.062,158.823 468.237,158.704 468.326,158.504C468.376,158.395 468.402,158.237 468.402,158.032C468.402,157.613 468.263,157.309 467.987,157.12C467.71,156.931 467.314,156.836 466.799,156.836C466.204,156.836 465.782,157.009 465.533,157.355C465.393,157.547 465.303,157.832 465.26,158.21L464.196,158.21C464.217,157.308 464.489,156.68 465.01,156.327C465.532,155.973 466.136,155.797 466.825,155.797C467.623,155.797 468.271,155.961 468.769,156.289C469.263,156.617 469.51,157.128 469.51,157.82L469.51,162.038C469.51,162.166 469.534,162.268 469.583,162.346C469.631,162.423 469.734,162.462 469.89,162.462C469.94,162.462 469.997,162.458 470.061,162.452C470.124,162.445 470.192,162.435 470.263,162.421L470.263,163.33C470.086,163.385 469.951,163.419 469.858,163.433C469.765,163.446 469.639,163.453 469.478,163.453C469.086,163.453 468.801,163.303 468.623,163.002C468.53,162.842 468.465,162.617 468.427,162.325C468.195,162.653 467.861,162.938 467.426,163.18C466.991,163.421 466.512,163.542 465.989,163.542C465.36,163.542 464.845,163.336 464.446,162.923C464.047,162.511 463.848,161.995 463.848,161.375C463.848,160.696 464.044,160.17 464.437,159.796C464.83,159.422 465.345,159.192 465.982,159.105L467.8,158.859Z" style="fill:rgb(224,225,225);fill-rule:nonzero;"/>
                    </g>
                    <g transform="matrix(1.177066,0,0,1,-25.877608,0)">
                        <path d="M148.59,106.878L153.201,106.878L160.028,130.529L166.807,106.878L171.369,106.878L171.369,134.852L168.311,134.852L168.311,118.342C168.311,117.771 168.322,116.825 168.344,115.504C168.365,114.184 168.376,112.769 168.376,111.258L161.597,134.852L158.41,134.852L151.583,111.258L151.583,112.115C151.583,112.8 151.596,113.845 151.623,115.247C151.65,116.65 151.664,117.682 151.664,118.342L151.664,134.852L148.59,134.852L148.59,106.878Z" style="fill:white;fill-rule:nonzero;"/>
                        <path d="M185.071,114C186.301,114 187.493,114.34 188.647,115.019C189.801,115.698 190.68,116.577 191.284,117.656C191.866,118.685 192.255,119.884 192.449,121.255C192.621,122.195 192.708,123.693 192.708,125.75L180.008,125.75C180.062,127.819 180.477,129.479 181.253,130.729C182.03,131.98 183.233,132.605 184.861,132.605C186.382,132.605 187.595,132.015 188.501,130.834C189.019,130.148 189.386,129.355 189.601,128.454L192.465,128.454C192.389,129.203 192.139,130.037 191.713,130.958C191.287,131.878 190.809,132.63 190.281,133.214C189.396,134.23 188.302,134.916 186.997,135.271C186.296,135.474 185.503,135.576 184.618,135.576C182.461,135.576 180.633,134.652 179.134,132.805C177.635,130.958 176.885,128.371 176.885,125.045C176.885,121.77 177.64,119.11 179.15,117.066C180.66,115.022 182.634,114 185.071,114ZM189.715,123.026C189.596,121.541 189.321,120.354 188.89,119.465C188.091,117.815 186.759,116.99 184.894,116.99C183.556,116.99 182.434,117.558 181.528,118.694C180.622,119.83 180.142,121.274 180.089,123.026L189.715,123.026Z" style="fill:white;fill-rule:nonzero;"/>
                        <path d="M200.101,124.893C200.101,127.076 200.494,128.904 201.282,130.377C202.069,131.85 203.331,132.586 205.067,132.586C206.415,132.586 207.524,131.904 208.392,130.539C209.26,129.174 209.694,127.216 209.694,124.664C209.694,122.087 208.352,118.942 208.352,118.942C208.352,118.942 206.351,117.085 205.035,117.085C203.568,117.085 202.379,117.745 201.468,119.065C200.556,120.386 200.101,122.328 200.101,124.893ZM204.485,114.095C205.812,114.095 206.922,114.425 207.818,115.085C208.335,115.466 208.923,116.133 209.581,117.085L209.581,106.783L212.38,106.783L212.38,134.852L209.759,134.852L209.759,132.015C209.08,133.272 208.276,134.179 207.348,134.738C206.421,135.296 205.359,135.576 204.161,135.576C202.231,135.576 200.559,134.62 199.146,132.71C197.733,130.799 197.027,128.257 197.027,125.083C197.027,122.112 197.671,119.538 198.96,117.361C200.249,115.184 202.09,114.095 204.485,114.095Z" style="fill:white;fill-rule:nonzero;"/>
                        <path d="M218.656,114.552L221.617,114.552L221.617,134.852L218.656,134.852L218.656,114.552ZM218.656,106.878L221.617,106.878L221.617,110.763L218.656,110.763L218.656,106.878Z" style="fill:white;fill-rule:nonzero;"/>
                        <path d="M230.223,129.425C230.223,130.415 230.531,131.196 231.146,131.767C231.76,132.338 232.488,132.624 233.33,132.624C234.354,132.624 235.347,132.345 236.306,131.786C237.924,130.859 238.733,129.342 238.733,127.235L238.733,124.474C238.377,124.74 237.919,124.962 237.358,125.14C236.797,125.318 236.247,125.445 235.708,125.521L233.944,125.788C232.887,125.953 232.095,126.213 231.566,126.568C230.671,127.165 230.223,128.117 230.223,129.425ZM237.277,122.493C237.946,122.392 238.393,122.062 238.62,121.503C238.749,121.198 238.814,120.76 238.814,120.189C238.814,119.021 238.461,118.174 237.754,117.647C237.048,117.12 236.037,116.856 234.721,116.856C233.2,116.856 232.122,117.339 231.485,118.304C231.129,118.837 230.898,119.63 230.79,120.684L228.072,120.684C228.126,118.17 228.819,116.422 230.151,115.438C231.483,114.454 233.028,113.962 234.786,113.962C236.824,113.962 238.48,114.419 239.752,115.333C241.014,116.247 241.645,117.669 241.645,119.599L241.645,131.348C241.645,131.704 241.707,131.989 241.831,132.205C241.955,132.421 242.217,132.529 242.616,132.529C242.745,132.529 242.891,132.519 243.053,132.5C243.215,132.481 243.387,132.453 243.571,132.415L243.571,134.947C243.118,135.1 242.772,135.195 242.535,135.233C242.298,135.271 241.974,135.29 241.564,135.29C240.561,135.29 239.833,134.871 239.38,134.033C239.143,133.589 238.976,132.96 238.879,132.148C238.286,133.062 237.434,133.856 236.323,134.528C235.212,135.201 233.988,135.538 232.65,135.538C231.043,135.538 229.73,134.963 228.711,133.814C227.691,132.665 227.182,131.228 227.182,129.501C227.182,127.609 227.683,126.143 228.686,125.102C229.69,124.061 231.005,123.42 232.634,123.179L237.277,122.493Z" style="fill:white;fill-rule:nonzero;"/>
                        <path d="M248.698,106.878L253.309,106.878L260.137,130.529L266.915,106.878L271.478,106.878L271.478,134.852L268.42,134.852L268.42,118.342C268.42,117.771 268.431,116.825 268.452,115.504C268.474,114.184 268.485,112.769 268.485,111.258L261.706,134.852L258.519,134.852L251.691,111.258L251.691,112.115C251.691,112.8 251.705,113.845 251.732,115.247C251.759,116.65 251.772,117.682 251.772,118.342L251.772,134.852L248.698,134.852L248.698,106.878Z" style="fill:white;fill-rule:nonzero;"/>
                        <path d="M280.197,129.425C280.197,130.415 280.504,131.196 281.119,131.767C281.734,132.338 282.462,132.624 283.303,132.624C284.328,132.624 285.32,132.345 286.28,131.786C287.898,130.859 288.707,129.342 288.707,127.235L288.707,124.474C288.351,124.74 287.893,124.962 287.332,125.14C286.771,125.318 286.221,125.445 285.682,125.521L283.918,125.788C282.861,125.953 282.068,126.213 281.54,126.568C280.645,127.165 280.197,128.117 280.197,129.425ZM287.251,122.493C287.92,122.392 288.367,122.062 288.594,121.503C288.723,121.198 288.788,120.76 288.788,120.189C288.788,119.021 288.435,118.174 287.728,117.647C287.022,117.12 286.011,116.856 284.695,116.856C283.174,116.856 282.095,117.339 281.459,118.304C281.103,118.837 280.871,119.63 280.763,120.684L278.045,120.684C278.099,118.17 278.792,116.422 280.124,115.438C281.456,114.454 283.001,113.962 284.759,113.962C286.798,113.962 288.453,114.419 289.726,115.333C290.988,116.247 291.619,117.669 291.619,119.599L291.619,131.348C291.619,131.704 291.681,131.989 291.805,132.205C291.929,132.421 292.191,132.529 292.59,132.529C292.719,132.529 292.865,132.519 293.027,132.5C293.188,132.481 293.361,132.453 293.544,132.415L293.544,134.947C293.091,135.1 292.746,135.195 292.509,135.233C292.272,135.271 291.948,135.29 291.538,135.29C290.535,135.29 289.807,134.871 289.354,134.033C289.117,133.589 288.95,132.96 288.852,132.148C288.259,133.062 287.407,133.856 286.296,134.528C285.185,135.201 283.961,135.538 282.624,135.538C281.017,135.538 279.704,134.963 278.684,133.814C277.665,132.665 277.156,131.228 277.156,129.501C277.156,127.609 277.657,126.143 278.66,125.102C279.663,124.061 280.979,123.42 282.608,123.179L287.251,122.493Z" style="fill:white;fill-rule:nonzero;"/>
                        <path d="M298.947,108.763L301.892,108.763L301.892,114.457L304.658,114.457L304.658,117.256L301.892,117.256L301.892,130.567C301.892,131.278 302.097,131.754 302.506,131.996C302.733,132.135 303.11,132.205 303.639,132.205C303.779,132.205 303.93,132.202 304.092,132.196C304.254,132.189 304.442,132.173 304.658,132.148L304.658,134.852C304.324,134.966 303.976,135.049 303.615,135.1C303.253,135.15 302.862,135.176 302.442,135.176C301.083,135.176 300.161,134.766 299.675,133.948C299.19,133.129 298.947,132.065 298.947,130.758L298.947,117.256L296.601,117.256L296.601,114.457L298.947,114.457L298.947,108.763Z" style="fill:white;fill-rule:nonzero;"/>
                        <path d="M309.624,114.457L312.391,114.457L312.391,117.98C312.617,117.294 313.173,116.46 314.057,115.476C314.942,114.492 315.961,114 317.115,114C317.169,114 317.26,114.006 317.39,114.019C317.519,114.032 317.74,114.057 318.053,114.095L318.053,117.713C317.881,117.675 317.722,117.65 317.576,117.637C317.43,117.625 317.271,117.618 317.099,117.618C315.632,117.618 314.505,118.174 313.717,119.284C312.93,120.395 312.536,121.674 312.536,123.122L312.536,134.852L309.624,134.852L309.624,114.457Z" style="fill:white;fill-rule:nonzero;"/>
                        <path d="M322.55,114.552L325.511,114.552L325.511,134.852L322.55,134.852L322.55,114.552ZM322.55,106.878L325.511,106.878L325.511,110.763L322.55,110.763L322.55,106.878Z" style="fill:white;fill-rule:nonzero;"/>
                        <path d="M330.234,114.457L334.004,114.457L337.984,121.636L342.012,114.457L345.555,114.552L339.715,124.398L345.814,134.852L342.093,134.852L337.79,127.197L333.616,134.852L329.927,134.852L336.026,124.398L330.234,114.457Z" style="fill:white;fill-rule:nonzero;"/>
                    </g>
                    <g transform="matrix(1,0,0,1,110.9312,145.1229)">
                        <path d="M0,6.965C-3.097,13.598 -10.982,16.464 -17.616,13.367C-24.248,10.271 -27.115,2.385 -24.019,-4.249C-20.922,-10.881 -13.035,-13.747 -6.402,-10.651C0.23,-7.555 3.097,0.332 0,6.965ZM-41.827,18.951C-43.249,17.086 -45.123,15.523 -47.396,14.461C-49.575,13.444 -51.872,13.013 -54.123,13.072L-56.298,-6.59C-52.57,-7.564 -49.236,-9.948 -47.169,-13.456L-26.139,-3.637C-27.47,0.113 -27.201,4.104 -25.65,7.534L-41.827,18.951ZM-41.727,33.65C-44.823,40.284 -52.71,43.15 -59.344,40.054C-65.976,36.957 -68.843,29.069 -65.747,22.438C-62.648,15.804 -54.762,12.939 -48.13,16.035C-41.497,19.132 -38.631,27.018 -41.727,33.65ZM-65.678,-9.071C-72.311,-12.167 -75.178,-20.055 -72.082,-26.687C-68.984,-33.32 -61.097,-36.186 -54.464,-33.09C-47.832,-29.993 -44.965,-22.105 -48.063,-15.474C-51.158,-8.841 -59.045,-5.975 -65.678,-9.071ZM-5.669,-12.224C-12.727,-15.519 -21.037,-12.841 -24.912,-6.265L-45.942,-16.083C-43.39,-23.277 -46.673,-31.367 -53.73,-34.662C-61.232,-38.164 -70.152,-34.922 -73.654,-27.421C-77.155,-19.92 -73.914,-11 -66.412,-7.497C-64.028,-6.385 -61.503,-5.968 -59.053,-6.139L-56.891,13.407C-61.313,14.364 -65.257,17.288 -67.319,21.704C-70.82,29.204 -67.579,38.124 -60.077,41.626C-52.576,45.129 -43.656,41.886 -40.154,34.386C-38.137,30.065 -38.368,25.278 -40.351,21.322L-24.262,9.969C-22.806,12.046 -20.815,13.79 -18.351,14.941C-10.849,18.442 -1.929,15.199 1.573,7.699C5.076,0.198 1.833,-8.722 -5.669,-12.224Z" style="fill:none;fill-rule:nonzero;stroke:white;stroke-width:1px;"/>
                    </g>
                </g>
            </g>
        </g>
    </g>
    <defs>
        <linearGradient id="_Linear1" x1="0" y1="0" x2="1" y2="0" gradientUnits="userSpaceOnUse" gradientTransform="matrix(0.5,0.866025,0.866025,-0.5,0.25,-0.433013)"><stop offset="0" style="stop-color:rgb(207,204,204);stop-opacity:1"/><stop offset="1" style="stop-color:rgb(77,69,66);stop-opacity:1"/></linearGradient>
    </defs>
</svg>
