<?xml version="1.0" encoding="UTF-8" standalone="no"?>
<!DOCTYPE svg PUBLIC "-//W3C//DTD SVG 1.1//EN" "http://www.w3.org/Graphics/SVG/1.1/DTD/svg11.dtd">
<svg width="534" height="104" viewBox="0 0 2220 430" version="1.1" xmlns="http://www.w3.org/2000/svg" xmlns:xlink="http://www.w3.org/1999/xlink" xml:space="preserve" xmlns:serif="http://www.serif.com/" style="fill-rule:evenodd;clip-rule:evenodd;">
    <g transform="matrix(1,0,0,1,-89.275,-404.166667)">
        <g transform="matrix(4.166667,0,0,4.166667,0,0)">
            <g transform="matrix(-355.59389,0,0,355.59389,465.61651,148.499918)">
                <rect x="-0.249" y="-0.145" width="1.498" height="0.29" style="fill:url(#_Linear1);"/>
            </g>
            <g transform="matrix(0.24,0,0,0.24,112.878164,116.47297)">
                <g transform="matrix(58.333333,0,0,58.333333,1596.788809,195.095542)">
                </g>
                <text x="148.524px" y="195.096px" style="font-family:'Helvetica';font-size:58.333px;fill:rgb(224,225,225);">P<tspan x="188.083px 208.16px 241.253px 274.347px 294.423px 327.517px 376.76px 426.004px 459.097px 492.191px 505.802px 538.895px 555.753px 598.531px 631.625px 648.483px 681.576px 714.67px 747.763px 777.581px 810.674px 827.533px 867.092px 900.185px 933.279px 946.89px 979.983px 1013.077px 1029.935px 1046.793px 1079.886px 1099.963px 1116.821px 1159.599px 1192.693px 1225.786px 1242.644px 1256.255px 1289.349px 1322.442px 1355.536px 1388.629px 1418.447px 1435.305px 1484.549px 1517.642px 1550.736px 1564.347px " y="195.096px 195.096px 195.096px 195.096px 195.096px 195.096px 195.096px 195.096px 195.096px 195.096px 195.096px 195.096px 195.096px 195.096px 195.096px 195.096px 195.096px 195.096px 195.096px 195.096px 195.096px 195.096px 195.096px 195.096px 195.096px 195.096px 195.096px 195.096px 195.096px 195.096px 195.096px 195.096px 195.096px 195.096px 195.096px 195.096px 195.096px 195.096px 195.096px 195.096px 195.096px 195.096px 195.096px 195.096px 195.096px 195.096px 195.096px 195.096px ">rogrammable Database Engine for Continuous Media</tspan></text>
            </g>
            <g transform="matrix(0.24,0,0,0.24,111.07172,81.227264)">
                <g transform="matrix(162.5,0,0,162.5,1127.861551,223.436817)">
                </g>
                <text x="146.147px" y="223.437px" style="font-family:'Helvetica';font-size:162.5px;fill:white;">M<tspan x="291.188px 391.24px 491.292px 537.071px 637.123px 782.164px 882.216px 937.041px 1000.832px 1046.612px " y="223.437px 223.437px 223.437px 223.437px 223.437px 223.437px 223.437px 223.437px 223.437px 223.437px ">ediaMatrix</tspan></text>
            </g>
            <g transform="matrix(1,0,0,1,110.9312,145.1229)">
                <path d="M0,6.965C-3.097,13.598 -10.982,16.464 -17.616,13.367C-24.248,10.271 -27.115,2.385 -24.019,-4.249C-20.922,-10.881 -13.035,-13.747 -6.402,-10.651C0.23,-7.555 3.097,0.332 0,6.965ZM-41.827,18.951C-43.249,17.086 -45.123,15.523 -47.396,14.461C-49.575,13.444 -51.872,13.013 -54.123,13.072L-56.298,-6.59C-52.57,-7.564 -49.236,-9.948 -47.169,-13.456L-26.139,-3.637C-27.47,0.113 -27.201,4.104 -25.65,7.534L-41.827,18.951ZM-41.727,33.65C-44.823,40.284 -52.71,43.15 -59.344,40.054C-65.976,36.957 -68.843,29.069 -65.747,22.438C-62.648,15.804 -54.762,12.939 -48.13,16.035C-41.497,19.132 -38.631,27.018 -41.727,33.65ZM-65.678,-9.071C-72.311,-12.167 -75.178,-20.055 -72.082,-26.687C-68.984,-33.32 -61.097,-36.186 -54.464,-33.09C-47.832,-29.993 -44.965,-22.105 -48.063,-15.474C-51.158,-8.841 -59.045,-5.975 -65.678,-9.071ZM-5.669,-12.224C-12.727,-15.519 -21.037,-12.841 -24.912,-6.265L-45.942,-16.083C-43.39,-23.277 -46.673,-31.367 -53.73,-34.662C-61.232,-38.164 -70.152,-34.922 -73.654,-27.421C-77.155,-19.92 -73.914,-11 -66.412,-7.497C-64.028,-6.385 -61.503,-5.968 -59.053,-6.139L-56.891,13.407C-61.313,14.364 -65.257,17.288 -67.319,21.704C-70.82,29.204 -67.579,38.124 -60.077,41.626C-52.576,45.129 -43.656,41.886 -40.154,34.386C-38.137,30.065 -38.368,25.278 -40.351,21.322L-24.262,9.969C-22.806,12.046 -20.815,13.79 -18.351,14.941C-10.849,18.442 -1.929,15.199 1.573,7.699C5.076,0.198 1.833,-8.722 -5.669,-12.224Z" style="fill:none;fill-rule:nonzero;stroke:white;stroke-width:1px;"/>
            </g>
        </g>
    </g>
    <defs>
        <linearGradient id="_Linear1" x1="0" y1="0" x2="1" y2="0" gradientUnits="userSpaceOnUse" gradientTransform="matrix(0.5,0.866025,0.866025,-0.5,0.25,-0.433013)"><stop offset="0" style="stop-color:rgb(207,204,204);stop-opacity:1"/><stop offset="1" style="stop-color:rgb(77,69,66);stop-opacity:1"/></linearGradient>
    </defs>
</svg>
